<svg xmlns="http://www.w3.org/2000/svg" xmlns:xlink="http://www.w3.org/1999/xlink" viewBox="0 0 161.65 162.86"><defs><style>.cls-1{fill:url(#radial-gradient);}.cls-2{fill:url(#radial-gradient-2);}.cls-3{fill:#0a5e28;}</style><radialGradient id="radial-gradient" cx="80.82" cy="135.91" r="60.24" gradientUnits="userSpaceOnUse"><stop offset="0.01" stop-color="#f2f2f2"/><stop offset="0.59" stop-color="#f2f2f2"/><stop offset="1" stop-color="#0a5e28"/></radialGradient><radialGradient id="radial-gradient-2" cx="78.3" cy="131.37" r="38.58" gradientTransform="translate(-8.81 13.24) scale(1.13 0.92)" gradientUnits="userSpaceOnUse"><stop offset="0.46" stop-color="#f2f2f2"/><stop offset="1" stop-color="#0a5e28"/></radialGradient></defs><title>Asset 1</title><g id="Layer_2" data-name="Layer 2"><g id="Layer_2-2" data-name="Layer 2"><path class="cls-1" d="M80.82,109C36.19,109,0,121,0,135.91s36.19,27,80.82,27,80.83-12.07,80.83-27S125.46,109,80.82,109Zm.3,49.51c-41.68,0-75.47-10.13-75.47-22.63s33.79-22.63,75.47-22.63,75.47,10.14,75.47,22.63S122.8,158.47,81.12,158.47Z"/><path class="cls-2" d="M79.51,117.9c-32.25,0-58.39,7.09-58.39,15.83s26.14,15.83,58.39,15.83,58.38-7.09,58.38-15.83S111.75,117.9,79.51,117.9ZM79.72,147C49.61,147,25.2,141,25.2,133.69S49.61,120.4,79.72,120.4s54.52,5.95,54.52,13.29S109.83,147,79.72,147Z"/><path class="cls-3" d="M124.12,24.15A41.47,41.47,0,0,0,110.5,9.09,49.93,49.93,0,0,0,86.88.4a53.91,53.91,0,0,0-19.07,1,46.68,46.68,0,0,0-23.1,12.71c-2.45,2.53-9.42,9.91-11.42,21.42a39.85,39.85,0,0,0,0,12.85c1.84,13.76,6.53,26.32,13.22,39.67,5.23,10.45,9.94,17.83,19.35,32.58,5.85,9.17,10.91,16.67,14.52,21.93l6.44-8.52c1-1.79,2.54-4.47,4.42-7.7,9.36-16,12.21-19.38,17.28-28C118,82.23,122,70.22,125.6,59.17a48.19,48.19,0,0,0,3-16.22A42.6,42.6,0,0,0,124.12,24.15ZM79.72,63.43c-13.06,0-23.65-9.7-23.65-21.67S66.66,20.1,79.72,20.1s23.65,9.7,23.65,21.66S92.78,63.43,79.72,63.43Z"/></g></g></svg>