<svg xmlns="http://www.w3.org/2000/svg" width="153" height="163" fill="none" viewBox="0 0 153 163">
    <path fill="#fff" d="M99.934 0L28.338 5.386l7.922 105.319 71.597-5.386L99.934 0z"/>
    <path fill="#fff" d="M69.807 29.491L0 46.287l24.706 102.686 69.807-16.795L69.807 29.491z"/>
    <path fill="#C7B299" d="M138.347 49.759H50.678v109.927h87.669V49.759z"/>
    <path fill="#fff" d="M138.922 50.38H51.253v109.926h87.669V50.379z"/>
    <path fill="#C7B299" d="M140.497 52.165H52.829v109.927h87.668V52.165z"/>
    <path fill="#FCF1E6" d="M138.922 50.38l1.575 1.785h-1.575v-1.786z"/>
    <path fill="#4B684C" d="M52.829 52.165l-2.15-2.406v109.927l2.15 2.406V52.165z"/>
    <path fill="#5E8261" d="M66.094 52.165H52.83v109.927h13.265V52.165z"/>
    <path fill="#4B684C" d="M50.678 49.759l.575.62h14.844v-.62H50.678z"/>
    <path fill="#C7B299" d="M138.347 49.759l.575.62H66.097v-.62h72.25z"/>
    <path fill="#E8D99A" d="M149.571 163c1.681 0 3.043-.983 3.043-2.196 0-1.212-1.362-2.195-3.043-2.195-1.68 0-3.043.983-3.043 2.195 0 1.213 1.363 2.196 3.043 2.196z"/>
    <path fill="#F9EEC0" d="M152.613 74.91h-6.085v85.818h6.085V74.909z"/>
    <path fill="#5E8261" d="M152.613 62.118h-6.085v15.836h6.085V62.118z"/>
</svg>
